<svg width="609" height="73" viewBox="0 0 609 73" fill="none" xmlns="http://www.w3.org/2000/svg">
<path d="M28.85 42.3C23.5633 42.3 18.7967 41.3033 14.55 39.31C10.3033 37.23 6.96667 33.85 4.54 29.17C2.11333 24.49 0.9 18.2067 0.9 10.32C0.9 2.26 2.24333 -4.06667 4.93 -8.66C7.70333 -13.34 11.3867 -16.6767 15.98 -18.67C20.66 -20.6633 25.8167 -21.66 31.45 -21.66C35.4367 -21.66 38.3833 -21.4867 40.29 -21.14C42.2833 -20.88 43.9733 -20.5767 45.36 -20.23L55.5 -8.79L47.7 1.48L34.05 -7.36C29.7167 -7.36 26.3367 -5.84333 23.91 -2.81C21.4833 0.223331 20.27 4.6 20.27 10.32C20.27 16.3867 21.57 20.85 24.17 23.71C26.77 26.57 30.4967 28 35.35 28C38.5567 28 41.4167 27.6533 43.93 26.96C46.53 26.18 48.6967 25.3567 50.43 24.49C52.1633 23.5367 53.3767 22.8433 54.07 22.41V37.23C51.9033 38.3567 48.74 39.4833 44.58 40.61C40.5067 41.7367 35.2633 42.3 28.85 42.3ZM85.4305 42.3C79.6238 42.3 74.6838 40.8267 70.6105 37.88C66.6238 34.8467 64.6305 30.1667 64.6305 23.84C64.6305 17.1667 66.7538 12.0967 71.0005 8.63C75.2471 5.07666 80.9238 3.3 88.0305 3.3C93.2305 3.3 97.1738 3.73333 99.8605 4.6C102.634 5.46667 104.454 6.11667 105.32 6.55L106.23 5.77C106.23 3.17 106.014 0.873331 105.58 -1.12C105.147 -3.11333 104.15 -4.63 102.59 -5.67C101.03 -6.79667 98.6038 -7.36 95.3105 -7.36C89.4171 -7.36 84.1305 -6.88334 79.4505 -5.93C74.8571 -4.97667 71.2171 -4.11 68.5305 -3.33V-17.63C71.2171 -18.5833 75.2905 -19.45 80.7505 -20.23C86.2105 -21.0967 92.1038 -21.53 98.4305 -21.53C103.804 -21.53 108.18 -20.7933 111.56 -19.32C115.027 -17.9333 117.67 -16.0267 119.49 -13.6C121.397 -11.1733 122.697 -8.48667 123.39 -5.54C124.17 -2.68 124.56 0.179997 124.56 3.04V20.33L127.16 33.46L124.56 41.13H107.53V34.76L106.23 34.11C105.537 34.9767 104.324 36.06 102.59 37.36C100.944 38.66 98.6905 39.83 95.8305 40.87C93.0571 41.8233 89.5905 42.3 85.4305 42.3ZM92.5805 27.87C96.3071 27.87 99.2105 27.5233 101.29 26.83C103.457 26.1367 105.104 25.4433 106.23 24.75V22.28C106.23 20.6333 105.234 18.9867 103.24 17.34C101.334 15.6933 98.1705 14.87 93.7505 14.87C90.4571 14.87 88.0305 15.52 86.4705 16.82C84.9105 18.12 84.1305 19.7667 84.1305 21.76C84.1305 23.84 84.8671 25.4 86.3405 26.44C87.8138 27.3933 89.8938 27.87 92.5805 27.87ZM137.024 -12.43L141.054 -20.36H155.224V-14.77L156.394 -13.99C157.348 -14.8567 158.648 -15.8533 160.294 -16.98C162.028 -18.1933 164.108 -19.2767 166.534 -20.23C168.961 -21.1833 171.691 -21.66 174.724 -21.66C183.738 -21.66 190.194 -18.67 194.094 -12.69C195.568 -14.8567 197.864 -16.8933 200.984 -18.8C204.191 -20.7933 208.611 -21.79 214.244 -21.79C222.044 -21.79 227.894 -19.58 231.794 -15.16C235.694 -10.74 237.644 -4.54333 237.644 3.43V20.07L240.374 33.07L237.644 41H219.574V2.91C219.574 -0.383336 218.664 -2.89667 216.844 -4.63C215.111 -6.45 212.598 -7.36 209.304 -7.36C205.924 -7.36 203.194 -6.40667 201.114 -4.5C199.121 -2.59334 198.124 -0.0800019 198.124 3.04V3.56V41H179.924V3.04C179.924 -0.253336 179.188 -2.76667 177.714 -4.5C176.328 -6.32 174.118 -7.23 171.084 -7.23L157.824 -4.76V41H139.624V1.87L137.024 -12.43ZM288.226 41C284.066 41 280.73 40.6533 278.216 39.96C275.703 39.18 273.883 38.4433 272.756 37.75C271.716 36.97 271.196 36.58 271.196 36.58V39.83H252.996V-31.41L250.266 -44.41L252.996 -52.21H271.196V-31.28L269.896 -16.59L271.196 -15.94C272.93 -17.5867 275.053 -19.1467 277.566 -20.62C280.166 -22.18 283.72 -22.96 288.226 -22.96C295.94 -22.96 301.963 -20.49 306.296 -15.55C310.716 -10.61 312.926 -2.81 312.926 7.85C312.926 15.8233 311.8 22.28 309.546 27.22C307.38 32.0733 304.433 35.5833 300.706 37.75C296.98 39.9167 292.82 41 288.226 41ZM279.906 27.22C283.373 27.22 286.06 26.3533 287.966 24.62C289.96 22.8867 291.346 20.6333 292.126 17.86C292.993 15.0867 293.426 12.0967 293.426 8.89C293.426 5.77 293.08 2.91 292.386 0.309997C291.78 -2.37667 290.61 -4.5 288.876 -6.06C287.143 -7.70667 284.586 -8.53 281.206 -8.53L271.196 -5.8V25.53C271.196 25.53 272.106 25.8333 273.926 26.44C275.746 26.96 277.74 27.22 279.906 27.22ZM324.725 41V0.309997L321.995 -12.69L324.725 -20.49H337.205L339.805 -17.5C339.805 -17.5 340.368 -17.8467 341.495 -18.54C342.708 -19.32 344.398 -20.0567 346.565 -20.75C348.732 -21.4433 351.375 -21.79 354.495 -21.79C356.228 -21.79 357.962 -21.66 359.695 -21.4C361.428 -21.14 362.772 -20.7933 363.725 -20.36L372.175 -11.91L365.025 0.829998L347.215 -8.14L342.665 -6.32V41H324.725ZM389.046 -26.86L375.136 -40.77L389.046 -54.68L402.826 -40.77L389.046 -26.86ZM379.946 41V-2.03L377.216 -12.43L379.816 -20.36H398.016V41H379.946ZM433.246 42.3C429.173 42.3 425.23 41.26 421.416 39.18C417.69 37.1 414.613 33.8067 412.186 29.3C409.76 24.7933 408.546 18.9 408.546 11.62C408.546 3.56 409.846 -2.89667 412.446 -7.75C415.046 -12.6033 418.34 -16.1133 422.326 -18.28C426.4 -20.5333 430.473 -21.66 434.546 -21.66C438.88 -21.66 442.26 -21.27 444.686 -20.49C447.113 -19.7967 448.933 -19.1467 450.146 -18.54L448.846 -43.11L450.146 -50.91H468.476V20.2L471.076 33.2L468.476 41.13H451.446V34.76L450.146 34.11C450.146 34.11 449.496 34.8033 448.196 36.19C446.896 37.49 444.99 38.8333 442.476 40.22C439.963 41.6067 436.886 42.3 433.246 42.3ZM440.396 27.87L450.146 26.05V-0.730001C450.146 -2.72333 449.323 -4.28334 447.676 -5.41C446.03 -6.62334 443.603 -7.23 440.396 -7.23C437.103 -7.23 434.546 -6.40667 432.726 -4.76C430.993 -3.2 429.78 -1.07667 429.086 1.61C428.393 4.21 428.046 7.11333 428.046 10.32C428.046 15.0867 429 19.2033 430.906 22.67C432.813 26.1367 435.976 27.87 440.396 27.87ZM511.448 72.59C509.281 72.59 506.811 72.5033 504.038 72.33C501.264 72.2433 499.011 72.1133 497.278 71.94L482.718 64.27L487.918 51.4L508.328 58.03C519.854 58.03 525.618 52.7867 525.618 42.3V37.1L524.318 36.45C523.278 37.3167 521.371 38.4867 518.598 39.96C515.911 41.3467 511.751 42.04 506.118 42.04C502.044 42.04 498.101 41.0433 494.288 39.05C490.474 36.97 487.354 33.6767 484.928 29.17C482.588 24.6633 481.418 18.8133 481.418 11.62C481.418 3.56 482.631 -2.89667 485.058 -7.75C487.484 -12.69 490.561 -16.2867 494.288 -18.54C498.101 -20.7933 502.044 -21.92 506.118 -21.92C510.624 -21.92 514.308 -21.27 517.168 -19.97C520.114 -18.67 522.064 -17.4133 523.018 -16.2V-20.49H541.348L542.648 -12.69L541.218 -4.89L541.348 40.87C541.348 50.9233 539.008 58.7233 534.328 64.27C529.648 69.8167 522.021 72.59 511.448 72.59ZM513.268 27.74C514.828 27.74 516.561 27.5233 518.468 27.09C520.374 26.6567 521.891 26.2667 523.018 25.92V-6.32C522.151 -6.58 520.938 -6.84 519.378 -7.1C517.818 -7.36 516.214 -7.49 514.568 -7.49C510.841 -7.49 507.981 -6.66667 505.988 -5.02C503.994 -3.46 502.651 -1.33667 501.958 1.35C501.264 4.03666 500.918 6.98333 500.918 10.19C500.918 13.3967 501.221 16.3433 501.828 19.03C502.521 21.63 503.778 23.7533 505.598 25.4C507.418 26.96 509.974 27.74 513.268 27.74ZM581 42.3C575.366 42.3 570.34 41.3033 565.92 39.31C561.5 37.3167 558.033 33.98 555.52 29.3C553.006 24.62 551.75 18.2933 551.75 10.32C551.75 2.60666 553.093 -3.59 555.78 -8.27C558.466 -12.95 562.02 -16.33 566.44 -18.41C570.86 -20.5767 575.713 -21.66 581 -21.66C586.806 -21.66 591.356 -21.01 594.65 -19.71C598.03 -18.41 600.586 -17.1533 602.32 -15.94L608.82 4.73L606.22 12.79H569.82C570.34 17.3833 571.986 21.0667 574.76 23.84C577.533 26.6133 581.78 28 587.5 28C592.18 28 595.95 27.4367 598.81 26.31C601.756 25.1833 603.793 24.3167 604.92 23.71V37.23C602.32 38.6167 598.983 39.83 594.91 40.87C590.923 41.8233 586.286 42.3 581 42.3ZM569.69 4.47L589.19 1.87L587.24 -7.75C586.633 -8.09667 585.766 -8.35667 584.64 -8.53C583.6 -8.70334 582.646 -8.79 581.78 -8.79C577.88 -8.79 574.89 -7.40334 572.81 -4.63C570.73 -1.94334 569.69 1.09 569.69 4.47Z" fill="url(#paint0_linear_160_16)"/>
<defs>
<linearGradient id="paint0_linear_160_16" x1="-3" y1="-7.5" x2="1362" y2="-7.5" gradientUnits="userSpaceOnUse">
<stop stop-color="white" stop-opacity="0.43"/>
<stop offset="1" stop-color="#999999"/>
</linearGradient>
</defs>
</svg>
